<svg width="20" height="8" viewBox="0 0 20 8" xmlns="http://www.w3.org/2000/svg">
<path d="M19.7338 3.35737L17.461 1.08464C17.201 0.824578 16.8099 0.746941 16.4703 0.887548C16.1306 1.02828 15.9091 1.35979 15.9091 1.72743V3.09113L0.909091 3.09113C0.40703 3.09113 0 3.49816 0 4.00022C0 4.50228 0.40703 4.90931 0.909091 4.90931H15.9091V6.27295C15.9091 6.64065 16.1305 6.97216 16.4703 7.11283C16.5827 7.15937 16.7009 7.18204 16.818 7.18204C17.0545 7.18204 17.2871 7.08968 17.461 6.91574L19.7337 4.64301C20.0888 4.28798 20.0888 3.7124 19.7338 3.35737Z" />
</svg>
