<svg width="20" height="20" viewBox="0 0 20 20" xmlns="http://www.w3.org/2000/svg" fill="#fff">
<g clip-path="url(#clip0_5_2)">
<path d="M10.6429 19.7338L12.9156 17.461C13.1757 17.201 13.2533 16.8099 13.1127 16.4703C12.972 16.1306 12.6405 15.9091 12.2728 15.9091L10.9091 15.9091L10.9091 0.909091C10.9091 0.40703 10.5021 -1.17138e-07 10 -1.39083e-07C9.49796 -1.61029e-07 9.09093 0.40703 9.09093 0.909091L9.09093 15.9091L7.72729 15.9091C7.3596 15.9091 7.02808 16.1305 6.88741 16.4703C6.84087 16.5827 6.8182 16.7009 6.8182 16.818C6.8182 17.0545 6.91057 17.2871 7.08451 17.461L9.35724 19.7337C9.71227 20.0888 10.2878 20.0888 10.6429 19.7338Z" fill="#fff"/>
</g>
<defs>
<clipPath id="clip0_5_2">
<rect width="20" height="20" transform="translate(20) rotate(90)" fill="#fff"/>
</clipPath>
</defs>
</svg>
