<svg width="32" height="32" viewBox="0 0 32 32"  xmlns="http://www.w3.org/2000/svg">
<path d="M31.375 27.4155H29.1408V21.6217C29.1408 21.2729 28.8609 20.9902 28.5158 20.9902H17.4094C17.0643 20.9902 16.7844 21.2729 16.7844 21.6217V27.4155H14.3273C14.9151 26.444 15.2297 25.3245 15.2297 24.162C15.2297 21.8262 13.9399 19.6953 11.9109 18.6225V16.3662C11.9109 16.0175 11.6311 15.7347 11.2859 15.7347H9.66944V14.2926C10.2827 14.2004 10.8598 13.9707 11.2924 13.6037C11.5294 13.4026 11.9032 12.9986 12.0279 12.3775C12.6275 12.581 13.1651 12.454 13.4578 12.3462C14.8711 11.825 15.9603 9.92091 15.6991 8.42808C15.6452 8.11983 15.4854 7.58993 15.0135 7.16954C15.4854 6.74914 15.6452 6.21924 15.6991 5.911C15.9603 4.41817 14.871 2.51403 13.4578 1.99285C13.1651 1.88498 12.6275 1.75792 12.0279 1.96152C11.9032 1.34043 11.5294 0.936453 11.2924 0.735316C10.1369 -0.245105 7.952 -0.245105 6.79644 0.735316C6.55944 0.936516 6.18562 1.34043 6.06087 1.96152C5.46144 1.75811 4.92381 1.88505 4.63112 1.99303C3.21788 2.51416 2.12856 4.41829 2.38981 5.91112C2.44369 6.21936 2.6035 6.7492 3.07544 7.16966C2.60356 7.59006 2.44369 8.11996 2.38981 8.4282C2.12862 9.92103 3.21788 11.8251 4.63112 12.3463C4.92387 12.4542 5.46137 12.5812 6.061 12.3776C6.18575 12.9987 6.55956 13.4026 6.79656 13.6038C7.22931 13.971 7.80625 14.2007 8.4195 14.2929V15.7349H6.803C6.45781 15.7349 6.178 16.0176 6.178 16.3664V18.6226C4.14906 19.6954 2.85919 21.8263 2.85919 24.1621C2.85919 25.3246 3.17388 26.444 3.76163 27.4156H0.625C0.279813 27.4156 0 27.6984 0 28.0471V29.6111C0 30.9283 1.06063 32 2.36438 32H29.6356C30.9393 32 32 30.9283 32 29.6111V28.0471C32 27.6982 31.7201 27.4155 31.375 27.4155V27.4155ZM7.59331 10.9618C7.65044 10.8622 7.67756 10.7533 7.67756 10.6459C7.67763 10.428 7.56581 10.2159 7.36569 10.0989C7.06706 9.92406 6.68462 10.027 6.51162 10.3289C5.86525 11.4567 5.25888 11.2331 5.05969 11.1597C4.21863 10.8496 3.46556 9.53505 3.62075 8.64803C3.71906 8.08611 4.20344 7.80117 5.06044 7.80117C5.40563 7.80117 5.68544 7.51838 5.68544 7.16966C5.68544 6.82094 5.40563 6.53815 5.06044 6.53815C4.20344 6.53815 3.71906 6.25321 3.62075 5.69129C3.46556 4.80421 4.21869 3.48965 5.05969 3.17952C5.25894 3.10607 5.86525 2.88252 6.51162 4.0104C6.68456 4.31213 7.06694 4.4152 7.36569 4.2404C7.56581 4.12331 7.67763 3.91125 7.67756 3.69332C7.67756 3.58596 7.65044 3.47709 7.59331 3.37743C6.94987 2.2548 7.43956 1.8392 7.60044 1.70267C8.28875 1.11864 9.80025 1.11864 10.4886 1.70267C10.6495 1.8392 11.1391 2.25473 10.4957 3.37743C10.4386 3.47709 10.4114 3.58596 10.4114 3.69332C10.4114 3.91131 10.5232 4.12338 10.7233 4.2404C11.022 4.4152 11.4044 4.31226 11.5774 4.0104C12.2237 2.88252 12.8299 3.10607 13.0293 3.17952C13.8703 3.48965 14.6234 4.80427 14.4682 5.69129C14.3699 6.25321 13.8855 6.53815 13.0285 6.53815C12.6833 6.53815 12.4035 6.82094 12.4035 7.16966C12.4035 7.51838 12.6833 7.80117 13.0285 7.80117C13.8855 7.80117 14.3699 8.08611 14.4682 8.64803C14.6234 9.53505 13.8703 10.8496 13.0293 11.1597C12.83 11.2332 12.2238 11.4567 11.5774 10.3289C11.4044 10.0271 11.022 9.924 10.7233 10.0989C10.5232 10.2159 10.4114 10.4279 10.4114 10.6459C10.4114 10.7533 10.4386 10.8622 10.4957 10.9618C11.1391 12.0845 10.6494 12.5 10.4886 12.6366C9.80025 13.2206 8.28875 13.2206 7.60044 12.6366C7.4395 12.5 6.94987 12.0845 7.59331 10.9618ZM18.0344 22.2532H27.8908V27.4155H18.0344V22.2532ZM4.10919 24.162C4.10919 22.1863 5.26556 20.3943 7.05519 19.5968C7.28175 19.4958 7.428 19.2692 7.428 19.019V16.9978H10.661V19.019C10.661 19.2692 10.8072 19.4959 11.0338 19.5968C12.8234 20.3943 13.9798 22.1862 13.9798 24.162C13.9798 25.3652 13.5574 26.5105 12.7849 27.4155H5.30406C4.53162 26.5105 4.10919 25.3652 4.10919 24.162V24.162ZM30.75 29.6109C30.75 30.2318 30.2501 30.7369 29.6356 30.7369H2.36438C1.74994 30.7369 1.25 30.2318 1.25 29.6109V28.6785H30.75V29.6109Z" />
<path d="M11.5936 7.1696C11.5936 5.75262 10.4501 4.59985 9.04443 4.59985C7.63886 4.59985 6.49536 5.75268 6.49536 7.1696C6.49536 8.58653 7.63886 9.73935 9.04443 9.73935C10.4501 9.73942 11.5936 8.58659 11.5936 7.1696V7.1696ZM7.74536 7.1696C7.74536 6.44905 8.32811 5.86288 9.04443 5.86288C9.7608 5.86288 10.3436 6.44905 10.3436 7.1696C10.3436 7.89016 9.7608 8.47633 9.04443 8.47633C8.32811 8.47639 7.74536 7.89016 7.74536 7.1696V7.1696Z" />
<path d="M25.3776 24.2029H20.5479C20.2027 24.2029 19.9229 24.4857 19.9229 24.8344C19.9229 25.1832 20.2027 25.4659 20.5479 25.4659H25.3776C25.7227 25.4659 26.0026 25.1832 26.0026 24.8344C26.0026 24.4856 25.7228 24.2029 25.3776 24.2029Z" />
</svg>
