<svg width="32" height="32" viewBox="0 0 32 32" xmlns="http://www.w3.org/2000/svg">
<path d="M30.4516 28.9032H29.9355V22.7097H29.1112C30.2343 21.456 32 19.009 32 16C32 11.663 27.8415 8.49394 27.6645 8.36129L27.2939 8.0831L25.9272 9.54735C26.6565 6.48929 26.4315 3.26865 25.2537 0.324129L25.1236 0H24.2581L24.1094 0.0216774C21.905 0.682839 20.0083 2.06813 18.6906 3.94529C18.4067 3.64284 18.1156 3.3471 17.808 3.06529L17.2449 2.54916C16.5631 1.92413 15.4359 1.92413 14.7541 2.54916L14.191 3.06529C13.8834 3.3471 13.5923 3.64335 13.3084 3.94529C11.9912 2.06865 10.0939 0.683355 7.88955 0.0216774L6.87639 0L6.74684 0.324645C5.56903 3.26865 5.344 6.48929 6.07329 9.54787L4.70658 8.08361L4.33548 8.36129C4.15845 8.49394 0 11.663 0 16C0 19.009 1.76568 21.456 2.88877 22.7097H2.06452V28.9032H1.54839C0.69471 28.9032 0 29.5979 0 30.4516V32H32V30.4516C32 29.5979 31.3053 28.9032 30.4516 28.9032V28.9032ZM27.4008 9.48129C28.367 10.3231 30.9677 12.8769 30.9677 16C30.9677 19.4018 28.2983 22.1177 27.6702 22.7097H21.8369L22.6369 19.776C23.0276 18.3443 23.2258 16.8655 23.2258 15.3801C23.2258 14.9244 23.2015 14.4717 23.1644 14.0206L27.4008 9.48129ZM24.335 1.03226H24.4201C25.583 4.15897 25.6145 7.59484 24.5022 10.7474L24.3169 11.2728L23.0028 12.6803C22.5234 9.76826 21.2759 7.02452 19.3961 4.74477C20.5698 2.97342 22.304 1.65987 24.335 1.03226V1.03226ZM14.8893 3.82606L15.4524 3.30994C15.7523 3.03484 16.2483 3.03484 16.5481 3.30994L17.1112 3.82606C20.3412 6.78658 22.1935 10.9987 22.1935 15.3801C22.1935 16.7737 22.0077 18.1615 21.6413 19.5045L20.767 22.7097H19.697L20.6452 19.233C20.9874 17.9783 21.1613 16.6823 21.1613 15.3801C21.1613 11.2872 19.4307 7.35329 16.4129 4.58632L16 4.20903L15.5866 4.58632C12.5693 7.35329 10.8387 11.2872 10.8387 15.3801C10.8387 16.6818 11.0121 17.9783 11.3548 19.2325L12.303 22.7097H11.233L10.3592 19.504C9.99277 18.161 9.80697 16.7737 9.80697 15.3801C9.80645 10.9987 11.6588 6.78658 14.8893 3.82606V3.82606ZM16.7298 20.129L18.5806 18.2782L19.567 19.2645L18.7737 22.1729L16.7298 20.129ZM11.8921 14.6441L13.4194 13.1169L15.2702 14.9677L13.4194 16.8186L11.8735 15.2728C11.8756 15.0627 11.8808 14.8532 11.8921 14.6441ZM20.1265 15.2728L18.5806 16.8186L16.7298 14.9677L18.5806 13.1169L20.1079 14.6441C20.1192 14.8532 20.1244 15.0627 20.1265 15.2728V15.2728ZM16 14.2379L14.1492 12.3871L16 10.5363L17.8508 12.3871L16 14.2379ZM16 15.6975L17.8508 17.5484L16 19.3992L14.1492 17.5484L16 15.6975ZM19.8555 18.0934L19.3105 17.5484L20.0459 16.8129C20.0005 17.2423 19.9417 17.6702 19.8555 18.0934V18.0934ZM16.7298 9.80645L18.1745 8.36181C19.0281 9.78219 19.6181 11.3512 19.9117 12.9884L16.7298 9.80645ZM16 9.07665L14.4046 7.48129C14.8774 6.81703 15.4085 6.19045 16 5.616C16.5915 6.19045 17.1221 6.81703 17.5954 7.48129L16 9.07665ZM13.8255 8.36181L15.2702 9.80645L12.0883 12.9884C12.3825 11.3512 12.9719 9.78219 13.8255 8.36181ZM12.6895 17.5484L12.1445 18.0934C12.0583 17.6702 11.9995 17.2423 11.9535 16.8129L12.6895 17.5484ZM13.4194 18.2782L15.2702 20.129L13.2145 22.1848L12.4325 19.2655L13.4194 18.2782ZM16 20.8588L17.8508 22.7097H14.1492L16 20.8588ZM7.49781 10.7474C6.38555 7.59484 6.41703 4.15897 7.57987 1.03226H7.66503C9.69548 1.65987 11.4302 2.97342 12.6044 4.74529C10.7246 7.02503 9.47665 9.76877 8.99768 12.6808L7.68361 11.2733L7.49781 10.7474ZM1.03226 16C1.03226 12.8769 3.63303 10.3231 4.59923 9.48129L8.83561 14.0201C8.79845 14.4717 8.77419 14.9244 8.77419 15.3801C8.77419 16.8655 8.97239 18.3443 9.3631 19.776L10.1631 22.7097H4.32981C3.70168 22.1177 1.03226 19.4018 1.03226 16V16ZM3.09677 23.7419H12.4516H19.5484H28.9032V28.9032H26.8387V27.3548C26.8387 25.9319 25.681 24.7742 24.2581 24.7742C22.8351 24.7742 21.6774 25.9319 21.6774 27.3548V28.9032H19.6129V28.3871C19.6129 26.3954 17.9923 24.7742 16 24.7742C14.0077 24.7742 12.3871 26.3954 12.3871 28.3871V28.9032H10.3226V27.3548C10.3226 25.9319 9.1649 24.7742 7.74194 24.7742C6.31897 24.7742 5.16129 25.9319 5.16129 27.3548V28.9032H3.09677V23.7419ZM25.8065 28.9032H22.7097V27.3548C22.7097 26.5012 23.4044 25.8065 24.2581 25.8065C25.1117 25.8065 25.8065 26.5012 25.8065 27.3548V28.9032ZM18.5806 28.9032H13.4194V28.3871C13.4194 26.9641 14.577 25.8065 16 25.8065C17.423 25.8065 18.5806 26.9641 18.5806 28.3871V28.9032ZM9.29032 28.9032H6.19355V27.3548C6.19355 26.5012 6.88826 25.8065 7.74194 25.8065C8.59561 25.8065 9.29032 26.5012 9.29032 27.3548V28.9032ZM30.9677 30.9677H1.03226V30.4516C1.03226 30.1667 1.264 29.9355 1.54839 29.9355H30.4516C30.736 29.9355 30.9677 30.1667 30.9677 30.4516V30.9677Z" />
<path d="M3.49365 20.1323C3.68927 20.4209 3.90449 20.7073 4.13314 20.9845L4.92952 20.3285C4.72101 20.0756 4.52539 19.8144 4.34733 19.5527L3.49365 20.1323Z" />
<path d="M3.09671 16H2.06445C2.06445 16.368 2.10161 16.7458 2.17542 17.1241L3.18858 16.9265C3.12768 16.6137 3.09671 16.3019 3.09671 16V16Z" />
<path d="M3.44748 17.8384L2.47974 18.1971C2.60258 18.529 2.75432 18.866 2.93083 19.1994L3.84335 18.7163C3.68799 18.4226 3.55483 18.1274 3.44748 17.8384V17.8384Z" />
<path d="M28.347 18.3333L29.2843 18.7648C29.7168 17.8275 29.9357 16.8969 29.9357 15.9999C29.9357 14.9068 29.5563 13.7697 28.8074 12.6213L27.9424 13.1849C28.5803 14.1625 28.9034 15.1096 28.9034 15.9999C28.9034 16.7467 28.7161 17.5323 28.347 18.3333Z" />
<path d="M28.6453 19.9237L27.7772 19.3643C27.5702 19.6863 27.3364 20.0053 27.0835 20.3124L27.8804 20.9684C28.1591 20.6303 28.4161 20.2788 28.6453 19.9237V19.9237Z" />
</svg>
