<svg width="32" height="32" viewBox="0 0 32 32" xmlns="http://www.w3.org/2000/svg">
<path d="M25.8486 16.8437L21.7339 12.8798L23.957 7.58204C24.1153 7.1977 23.9344 6.75308 23.5501 6.59483C23.3391 6.5044 23.0979 6.51947 22.8945 6.63251L17.9132 9.36052L13.6705 5.55487C13.3615 5.27604 12.8867 5.30618 12.6079 5.61515C12.4572 5.78848 12.3893 6.0221 12.427 6.24817L13.4293 11.9152L8.54601 14.8392C8.19182 15.0502 8.07125 15.5174 8.28979 15.8716C8.41037 16.0675 8.6063 16.2032 8.83238 16.2333L11.794 16.6403L0.633264 27.7935C-0.210762 28.6375 -0.210762 30.0015 0.633264 30.8455C1.47729 31.6895 2.8413 31.6895 3.68532 30.8531C3.68532 30.8531 3.68532 30.8531 3.69286 30.8455L15.0269 19.5039L15.7052 22.6238C15.773 22.9403 16.0367 23.1739 16.3533 23.2116C16.3834 23.2116 16.4135 23.2191 16.4437 23.2191C16.7301 23.2191 17.0013 23.0533 17.1219 22.7896L19.6013 17.6124L25.2532 18.1324C25.6677 18.17 26.037 17.8686 26.0746 17.4541C26.0972 17.2281 26.0143 17.002 25.8486 16.8437ZM2.61522 29.7829C2.359 30.0392 1.95206 30.0392 1.69583 29.7829C1.43961 29.5267 1.43961 29.1198 1.69583 28.8636L5.6296 24.9298L6.54899 25.8492L2.61522 29.7829ZM7.61909 24.7791L6.6997 23.8597L13.6629 16.8965L14.4768 17.0095L14.6426 17.7556L7.61909 24.7791ZM19.2169 16.0675C18.9004 16.0374 18.6065 16.2107 18.4709 16.4895L16.715 20.1595L15.8483 16.173C15.7805 15.864 15.5243 15.6304 15.2153 15.5852L11.161 15.0276L14.6501 12.9401C14.9214 12.7818 15.0571 12.4729 15.0043 12.1639L14.2959 8.13216L17.3179 10.8376C17.559 11.0486 17.9057 11.0938 18.1845 10.9355L21.7415 8.98372L20.1514 12.7668C20.0308 13.0531 20.0986 13.3847 20.3247 13.6033L23.2637 16.4368L19.2169 16.0675Z" />
<path d="M24.3338 24.1383L22.2313 21.0712C22.0052 20.7246 21.538 20.6266 21.1913 20.8527C20.8447 21.0787 20.7467 21.546 20.9728 21.8926C20.9803 21.9002 20.9879 21.9077 20.9879 21.9228L23.0904 24.9899C23.324 25.3366 23.7912 25.4195 24.1379 25.1858C24.4845 24.9522 24.5674 24.485 24.3338 24.1383Z" />
<path d="M18.6442 0.520752C18.2297 0.520752 17.8906 0.85987 17.8906 1.27435V4.90668C17.8906 5.32115 18.2297 5.66027 18.6442 5.66027C19.0587 5.66027 19.3978 5.32115 19.3978 4.90668V1.27435C19.3978 0.85987 19.0587 0.520752 18.6442 0.520752Z" />
<path d="M31.9753 10.2874C31.8698 9.89553 31.4704 9.65438 31.0785 9.74481L26.2329 10.9581C25.826 11.0485 25.5773 11.4555 25.6677 11.8624C25.7581 12.2694 26.1651 12.518 26.572 12.4276C26.5796 12.4276 26.5871 12.4201 26.5946 12.4201L31.4403 11.2068C31.8397 11.1013 32.0808 10.6868 31.9753 10.2874Z" />
<path d="M8.69681 9.28516L5.10216 8.68228C4.68768 8.61445 4.30335 8.89329 4.24306 9.30776C4.17524 9.71471 4.44653 10.099 4.84594 10.1744L8.44059 10.7773C8.4858 10.7848 8.52348 10.7848 8.5687 10.7848C8.98318 10.7848 9.32229 10.4457 9.32229 10.0312C9.32229 9.66195 9.05854 9.35298 8.69681 9.28516Z" />
</svg>
