<svg width="32" height="32" viewBox="0 0 32 32"  xmlns="http://www.w3.org/2000/svg">
<path d="M31.4672 25.0669C31.7618 25.0669 32.0005 24.8281 32.0005 24.5336C32.0005 24.239 31.7617 24.0003 31.4672 24.0003H30.9339C30.9339 23.7057 30.6952 23.4669 30.4006 23.4669C30.106 23.4669 29.8673 23.7057 29.8673 24.0003H21.3339C21.3339 23.7057 21.0951 23.4669 20.8006 23.4669C20.506 23.4669 20.2672 23.7057 20.2672 24.0003H19.7339C19.4394 24.0003 19.2006 24.2391 19.2006 24.5336C19.2006 24.8281 19.4394 25.0669 19.7339 25.0669H20.2672V26.6669H19.7339C19.4394 26.6669 19.2006 26.9056 19.2006 27.2002C19.2006 27.4948 19.4394 27.7335 19.7339 27.7335H20.2672V28.2668H19.7339C19.4394 28.2668 19.2006 28.5056 19.2006 28.8002C19.2006 29.0947 19.4394 29.3335 19.7339 29.3335H20.2672V30.9335H11.2004V26.521C11.9894 26.9655 12.8795 27.1995 13.7851 27.2001C16.8138 27.1565 19.236 24.6701 19.2005 21.6412C19.2169 19.5354 18.041 17.6013 16.1637 16.647C16.7817 15.8056 17.1128 14.7878 17.1083 13.7438C17.1268 11.4399 15.5107 9.44562 13.2528 8.98649C13.8241 7.72661 13.7259 6.26423 12.9912 5.09209C12.2566 3.9199 10.9833 3.19396 9.60037 3.1589C9.58456 3.1589 9.56931 3.16115 9.55356 3.16133C9.26962 1.32589 7.67918 -0.0213685 5.82204 0.000256655C3.96491 0.0218818 2.40634 1.40589 2.16521 3.24746C0.814705 3.50634 -0.117613 4.74972 0.0123255 6.11872C0.142264 7.48773 1.29189 8.53342 2.66709 8.53349H5.77592C5.82404 8.68686 5.8811 8.8373 5.94679 8.98399C3.68903 9.44468 2.07365 11.4397 2.09259 13.7439C2.08802 14.7878 2.41915 15.8056 3.03709 16.647C1.15989 17.6015 -0.0160496 19.5355 0.000387977 21.6413C-0.0352372 24.6701 2.38702 27.1566 5.41579 27.2002C6.32136 27.1995 7.21149 26.9656 8.00043 26.521V30.9335H0.533766C0.239202 30.9335 0.000450473 31.1723 0.000450473 31.4669C0.000450473 31.7614 0.239202 32.0002 0.533766 32.0002H31.4672C31.7618 32.0002 32.0005 31.7614 32.0005 31.4669C32.0005 31.1723 31.7617 30.9335 31.4672 30.9335H30.9339V29.3335H31.4672C31.7618 29.3335 32.0005 29.0948 32.0005 28.8002C32.0005 28.5056 31.7617 28.2669 31.4672 28.2669H30.9339V27.7336H31.4672C31.7618 27.7336 32.0005 27.4948 32.0005 27.2003C32.0005 26.9057 31.7617 26.667 31.4672 26.667H30.9339V25.0669H31.4672V25.0669ZM5.57985 7.28242C5.57985 7.34436 5.58685 7.40523 5.5896 7.46679H2.66709C1.78346 7.46679 1.06708 6.75048 1.06708 5.86679C1.06708 4.98309 1.78346 4.26678 2.66709 4.26678C2.80853 4.26684 2.94422 4.21065 3.04428 4.11059C3.14428 4.01059 3.20047 3.8749 3.20047 3.7334C3.19772 2.34152 4.26791 1.18264 5.6556 1.07476C7.0433 0.966824 8.27974 1.94639 8.49224 3.32196C6.75273 3.85328 5.56854 5.46366 5.57985 7.28242ZM10.1338 30.9336H9.06712V25.737C9.25825 25.559 9.4365 25.3676 9.60044 25.1643C9.76437 25.3676 9.94263 25.559 10.1338 25.7369V30.9336H10.1338ZM10.1986 24.1563L13.7109 20.6439C13.916 20.4351 13.9144 20.1001 13.7075 19.8932C13.5006 19.6862 13.1656 19.6847 12.9568 19.8898L10.1338 22.7127V17.2877L12.6442 14.7773C12.8502 14.5686 12.8492 14.2328 12.6418 14.0255C12.4345 13.8181 12.0987 13.8171 11.89 14.0231L10.1338 15.7793V13.3335C10.1338 13.0389 9.89494 12.8002 9.60044 12.8002C9.30587 12.8002 9.06712 13.039 9.06712 13.3335V15.7793L7.31086 14.0231C7.10224 13.8171 6.76642 13.8181 6.55905 14.0255C6.35167 14.2328 6.35067 14.5686 6.55667 14.7773L9.06706 17.2877V22.7127L6.24411 19.8898C6.03548 19.6838 5.69967 19.6849 5.49229 19.8922C5.28498 20.0995 5.28391 20.4354 5.48992 20.644L9.00225 24.1563C8.22143 25.3831 6.86986 26.1282 5.41567 26.1336C2.97578 26.0906 1.03071 24.0814 1.06696 21.6414C1.04433 19.7118 2.26396 17.986 4.09041 17.3632C4.26697 17.305 4.40047 17.1591 4.44272 16.978C4.48497 16.797 4.42978 16.607 4.29722 16.4767C3.56409 15.757 3.15359 14.7712 3.15922 13.7439C3.12434 11.7088 4.73379 10.0247 6.76836 9.96731C6.98855 9.98674 7.19899 9.87274 7.30299 9.67768C7.39392 9.49843 7.37611 9.28324 7.25692 9.12143C6.86161 8.58967 6.64761 7.94498 6.64648 7.28236C6.62048 5.62347 7.94162 4.25634 9.60037 4.22559C11.2592 4.25634 12.5803 5.62347 12.5543 7.28236C12.5531 7.94498 12.3391 8.58967 11.9438 9.12143C11.8271 9.28462 11.8124 9.49968 11.9061 9.67718C12.0003 9.85724 12.1869 9.96987 12.3902 9.96937C14.4395 10.0062 16.0726 11.6944 16.0415 13.7439C16.0472 14.7712 15.6366 15.757 14.9035 16.4767C14.7709 16.607 14.7158 16.797 14.758 16.978C14.8003 17.1591 14.9338 17.305 15.1103 17.3632C17.1587 18.0795 18.4074 20.1521 18.0832 22.2977C17.7589 24.4434 15.9537 26.0546 13.7851 26.1336C12.3309 26.1282 10.9794 25.3831 10.1986 24.1563ZM29.8672 30.9336H21.3339V29.3336H29.8672V30.9336V30.9336ZM29.8672 28.2669H21.3339V27.7336H29.8672V28.2669V28.2669ZM29.8672 26.6669H21.3339V25.0669H29.8672V26.6669V26.6669Z" />
<path d="M22.9337 13.3334H29.3337C30.7089 13.3333 31.8585 12.2876 31.9885 10.9186C32.1184 9.54963 31.1861 8.30625 29.8355 8.04744C29.5915 6.18931 28.0078 4.80005 26.1337 4.80005C24.2596 4.80005 22.6759 6.18931 22.4319 8.04744C21.0813 8.30625 20.149 9.54963 20.2789 10.9186C20.4089 12.2876 21.5585 13.3333 22.9337 13.3334ZM22.9337 9.06669C23.0751 9.06676 23.2108 9.01057 23.3109 8.91051C23.4109 8.81051 23.4671 8.67482 23.4671 8.53332C23.4671 7.06056 24.661 5.86662 26.1338 5.86662C27.6065 5.86662 28.8005 7.0605 28.8005 8.53332C28.8004 8.67476 28.8566 8.81044 28.9567 8.91051C29.0567 9.01051 29.1924 9.06669 29.3339 9.06669C30.2175 9.06669 30.9339 9.78307 30.9339 10.6667C30.9339 11.5503 30.2176 12.2667 29.3339 12.2667H22.9338C22.0502 12.2667 21.3338 11.5504 21.3338 10.6667C21.3338 9.78301 22.05 9.06669 22.9337 9.06669Z" />
</svg>
