<svg width="20" height="8" viewBox="0 0 20 8" xmlns="http://www.w3.org/2000/svg">
<path d="M0.266244 4.64286L2.53897 6.91559C2.79897 7.17565 3.19006 7.25329 3.5297 7.11268C3.86939 6.97195 4.09091 6.64044 4.09091 6.2728L4.09091 4.9091L19.0909 4.9091C19.593 4.9091 20 4.50207 20 4.00001C20 3.49795 19.593 3.09092 19.0909 3.09092L4.09091 3.09092L4.09091 1.72728C4.09091 1.35958 3.86945 1.02807 3.5297 0.887399C3.41727 0.840853 3.29909 0.818187 3.182 0.818187C2.94546 0.818187 2.71291 0.91055 2.53903 1.08449L0.266305 3.35722C-0.0887862 3.71225 -0.0887867 4.28783 0.266244 4.64286Z"/>
</svg>
