<svg width="33" height="33" viewBox="0 0 33 33"  xmlns="http://www.w3.org/2000/svg">
<path d="M11.643 4.52199C11.5571 4.24028 11.259 4.0815 10.9773 4.16734C9.87815 4.45292 8.87123 5.017 8.05372 5.80512C7.31 6.604 6.73541 7.54492 6.36445 8.57137C6.20454 9.04421 6.07274 9.52609 5.96974 10.0145L5.9164 10.2454C5.87086 10.4316 5.92879 10.628 6.06814 10.7597C6.20748 10.8913 6.4068 10.9381 6.59019 10.8822C6.77359 10.8262 6.91284 10.6762 6.95492 10.4891L7.00826 10.2571C7.10184 9.81158 7.22098 9.37176 7.36511 8.93989C7.6868 8.04975 8.18459 7.23355 8.82875 6.54001C9.5201 5.88839 10.3662 5.42382 11.2872 5.19022C11.4233 5.14923 11.5374 5.05562 11.6042 4.93016C11.671 4.8047 11.685 4.65777 11.643 4.52199Z" />
<path d="M5.79829 12.7306C6.09288 12.7306 6.33169 12.4918 6.33169 12.1972C6.33169 11.9026 6.09288 11.6638 5.79829 11.6638C5.5037 11.6638 5.26489 11.9026 5.26489 12.1972C5.26489 12.4918 5.5037 12.7306 5.79829 12.7306Z" />
<path d="M13.7046 19.9798C13.4913 20.2545 13.3723 20.4108 13.3723 20.4108C13.1956 20.6465 13.2433 20.9808 13.479 21.1575C13.7147 21.3343 14.049 21.2865 14.2258 21.0509C14.2258 21.0477 14.3388 20.8989 14.5458 20.6391C14.7277 20.4073 14.6872 20.0718 14.4554 19.8899C14.2236 19.708 13.8881 19.7485 13.7062 19.9804L13.7046 19.9798Z" />
<path d="M15.8798 17.3706C15.6558 17.625 15.4435 17.8704 15.244 18.104C15.0525 18.3279 15.0788 18.6646 15.3027 18.8561C15.5266 19.0476 15.8633 19.0213 16.0548 18.7974C16.2511 18.5681 16.4591 18.327 16.6799 18.0773C16.8751 17.8564 16.8542 17.5191 16.6333 17.3239C16.4123 17.1288 16.075 17.1496 15.8798 17.3706Z" />
<path d="M18.2027 14.8903C17.9705 15.1222 17.7436 15.3533 17.522 15.5837C17.318 15.7964 17.3251 16.1342 17.5378 16.3382C17.7505 16.5422 18.0883 16.5352 18.2923 16.3225C18.5085 16.097 18.73 15.8705 18.9569 15.6429C19.0987 15.5097 19.1568 15.3098 19.1084 15.1213C19.0599 14.9329 18.9127 14.7857 18.7242 14.7374C18.5356 14.6891 18.3358 14.7473 18.2027 14.8893V14.8903Z" />
<path d="M18.0664 11.664C18.065 11.0223 17.7751 10.4153 17.277 10.0107C17.79 8.98669 17.4027 7.74041 16.3996 7.18738C15.3965 6.63435 14.1357 6.97193 13.5432 7.95215C12.9355 7.87614 12.3243 8.06351 11.8636 8.46703C11.403 8.87054 11.1368 9.45171 11.1323 10.064C11.1323 10.1238 11.1323 10.184 11.1403 10.2454C10.5815 10.8728 10.4431 11.7698 10.7867 12.5364C11.1304 13.3031 11.8922 13.7967 12.7325 13.7972H15.9329C17.1112 13.7972 18.0664 12.8421 18.0664 11.664ZM16.6865 12.4175C16.4872 12.6183 16.2158 12.731 15.9329 12.7306H12.7325C12.301 12.73 11.9123 12.4697 11.7477 12.0709C11.583 11.6721 11.6749 11.2135 11.9804 10.9088C11.9926 10.896 12.007 10.8811 12.0166 10.8725C12.1911 10.7492 12.275 10.5336 12.23 10.3248C12.2103 10.2393 12.2 10.1518 12.1991 10.064C12.1991 9.47496 12.6767 8.99742 13.2659 8.99742C13.3996 8.99778 13.532 9.02404 13.6558 9.07475C13.7977 9.133 13.9579 9.12729 14.0954 9.05908C14.2329 8.99087 14.3343 8.86678 14.3737 8.71851C14.5191 8.20952 15.0157 7.88409 15.5405 7.95404C16.0653 8.02399 16.4594 8.46815 16.4663 8.99742C16.4683 9.2919 16.3452 9.5734 16.1275 9.77178C15.9901 9.89758 15.9282 10.086 15.9644 10.2688C16.0006 10.4516 16.1296 10.6022 16.3046 10.6661C16.645 10.7921 16.8977 11.0828 16.975 11.4373C17.0523 11.7919 16.9436 12.1613 16.6865 12.4175Z" />
<path d="M32.4684 18.0638C32.4656 16.9084 31.5433 15.9653 30.3881 15.9364L32.9927 1.62677C32.9935 1.61113 32.9935 1.59547 32.9927 1.57984C32.9975 1.5382 32.9975 1.49615 32.9927 1.45451C32.9927 1.44811 32.9927 1.44224 32.9927 1.43584C32.9927 1.42944 32.9927 1.42998 32.9895 1.42678C32.9837 1.40794 32.977 1.38943 32.9692 1.37131C32.9587 1.33711 32.9448 1.30406 32.9276 1.27265C32.9207 1.26092 32.9175 1.24705 32.91 1.23585C32.9026 1.22465 32.886 1.21132 32.8754 1.19692C32.8647 1.18252 32.8583 1.16706 32.8455 1.15426C32.8327 1.14146 32.8161 1.13559 32.8028 1.12439C32.7895 1.11319 32.7799 1.09986 32.766 1.09026C32.7521 1.08066 32.7409 1.07906 32.7287 1.07213C32.6969 1.05451 32.6632 1.04038 32.6284 1.03C32.6111 1.02228 32.5933 1.01586 32.5751 1.0108C32.5713 1.0108 32.5687 1.00707 32.5649 1.00653C32.5612 1.006 32.5527 1.00653 32.5463 1.00653C32.5041 1.0012 32.4615 1.0012 32.4193 1.00653C32.4038 1.00653 32.3894 1.0028 32.374 1.00653L23.7206 2.57978C21.6781 1.43021 19.3499 0.887206 17.0094 1.01453C15.2738 1.13489 13.5493 1.3823 11.8499 1.75476C9.44478 2.23473 7.69684 3.07789 6.50363 4.33863C5.5624 5.3456 4.83465 6.53254 4.36417 7.82804C4.17208 8.3855 4.01425 8.95417 3.89158 9.53089L3.83824 9.75594C3.7244 10.1742 3.57171 10.5809 3.38218 10.9708C3.2755 11.214 3.16456 11.4572 3.06908 11.7089C2.94631 11.9891 2.89782 12.2962 2.92826 12.6006C3.03559 13.0785 3.31147 13.5019 3.70542 13.7931C3.96625 14.032 4.13747 14.2005 4.13961 14.3472C4.12052 14.4282 4.08999 14.5062 4.04893 14.5786C3.41017 15.9232 2.62775 17.1947 1.71531 18.371C1.3286 18.8413 0.923218 19.3901 1.00856 19.9394C1.12171 20.3632 1.40091 20.7235 1.78306 20.9388C1.95843 21.0606 2.14362 21.1677 2.33672 21.2588C2.56715 21.3767 2.95386 21.574 2.98107 21.7121C3.01459 21.8944 2.99267 22.0826 2.91813 22.2524C2.83865 22.423 2.75544 22.5697 2.68343 22.6961C2.48821 23.0411 2.16123 23.6192 2.65409 24.0219C2.76931 24.1285 2.96827 24.2827 3.14962 24.4219C3.01611 24.6552 2.95573 24.9233 2.97627 25.1914C3.00457 25.4025 3.11908 25.5925 3.29257 25.7162C3.41099 25.7994 3.5374 25.8719 3.66168 25.9428C3.97746 26.122 4.10067 26.2058 4.14174 26.3732C4.17138 26.5879 4.15316 26.8064 4.0884 27.0132C4.05693 27.1556 4.02653 27.2985 4.00839 27.4398C3.95542 27.9259 4.01548 28.4176 4.18388 28.8766C4.42381 29.7239 5.19038 30.3142 6.07104 30.3298C6.21804 30.3294 6.36461 30.3138 6.50843 30.2834C8.03223 29.9223 9.53378 29.473 11.0055 28.9379C12.2073 29.6429 12.9663 31.7868 13.1642 32.5916C13.2233 32.8295 13.4369 32.9965 13.6821 32.9963L27.0704 32.959C27.2401 32.9587 27.3995 32.8777 27.4997 32.7408C27.5999 32.6039 27.6291 32.4275 27.5782 32.2657C27.4463 31.9044 27.2644 31.5633 27.0379 31.2524C26.9099 31.0681 26.7946 30.8753 26.6927 30.6754C26.4511 30.1866 26.2497 29.679 26.0905 29.1576C25.7858 28.127 25.5746 27.0711 25.4595 26.0026C25.2721 24.4066 25.5142 22.7896 26.1609 21.3185C26.1759 21.2839 26.1956 21.2481 26.2143 21.2119C26.6059 21.5859 27.1262 21.7953 27.6678 21.7969H30.8682C31.7083 21.7962 32.4697 21.3027 32.8134 20.5363C33.157 19.7698 33.0188 18.8731 32.4604 18.2456C32.4684 18.1843 32.4684 18.124 32.4684 18.0638ZM25.5923 12.8043L31.4827 3.97064L29.2109 16.4639C29.208 16.4756 29.2058 16.4876 29.2045 16.4996L29.1261 16.9262L25.5923 12.8043ZM30.0281 2.51685L21.1939 8.40561L17.0713 4.87246L30.0281 2.51685ZM24.5474 9.44983C24.3391 9.24163 24.0015 9.24163 23.7932 9.44983L21.1993 12.0444L21.6415 9.3885L30.5481 3.45387L24.6093 12.3574L21.953 12.8001L24.5474 10.2055C24.6477 10.1055 24.7041 9.96962 24.7041 9.82794C24.7041 9.68627 24.6477 9.55041 24.5474 9.45036V9.44983ZM24.4018 26.1327C24.5248 27.2652 24.7494 28.3843 25.0728 29.4765C25.2483 30.0498 25.4697 30.608 25.7348 31.1458C25.8565 31.3873 25.9946 31.6202 26.1481 31.8428L26.1839 31.8961L14.0853 31.9297C13.7313 30.6646 13.0886 29.4989 12.2078 28.524L12.6878 28.356C13.0452 28.2313 13.3146 28.1374 13.4527 28.0931C15.7378 27.3705 16.8804 26.33 16.8494 25C16.8425 24.7104 16.6057 24.4794 16.316 24.4794H16.3064C16.012 24.4864 15.779 24.7307 15.7858 25.025C15.7986 25.5738 15.349 26.3743 13.1316 27.0756C12.9871 27.122 12.7086 27.219 12.339 27.3481C11.9427 27.4868 11.4386 27.6627 10.8828 27.8515H10.8791C9.378 28.4017 7.84638 28.8647 6.29187 29.2381C5.79458 29.3334 5.31053 29.0199 5.19414 28.5272C5.08046 28.2238 5.03759 27.8984 5.06879 27.5758C5.08266 27.4638 5.10826 27.3529 5.1328 27.2414C5.24148 26.8727 5.25742 26.4829 5.1792 26.1066C5.02406 25.6167 4.66351 25.2184 4.19135 25.0154L4.08093 24.9525C4.13853 24.8362 4.20731 24.7258 4.28629 24.6229C4.37577 24.5095 4.41545 24.3647 4.39625 24.2216C4.37705 24.0785 4.30061 23.9493 4.18441 23.8635C4.0564 23.7696 3.75449 23.5435 3.53367 23.3654C3.55927 23.319 3.58701 23.2678 3.61368 23.2214C3.69742 23.0747 3.7929 22.9041 3.88624 22.7067C4.05504 22.3329 4.10476 21.9162 4.02866 21.5132C3.90065 20.8626 3.2771 20.5437 2.82265 20.3111C2.66919 20.2382 2.52201 20.1528 2.3826 20.0557C2.26918 19.979 2.16279 19.8925 2.06469 19.797C2.06469 19.716 2.15163 19.5197 2.55808 19.0253C3.51344 17.7957 4.33255 16.466 5.00105 15.0597C5.12604 14.8393 5.19646 14.5923 5.2064 14.3392C5.15131 13.8031 4.86719 13.317 4.42711 13.0059C4.21375 12.8081 4.00839 12.6214 3.98439 12.4475C3.98793 12.3217 4.0162 12.1977 4.0676 12.0828C4.15454 11.854 4.25482 11.63 4.35563 11.4055C4.57435 10.9545 4.74905 10.4836 4.8773 9.99913L4.93064 9.77194C5.04323 9.23878 5.18841 8.71302 5.36536 8.19763C5.78583 7.03729 6.43685 5.97404 7.27919 5.07192C8.29958 3.99251 9.90564 3.22882 12.0606 2.80057C13.7084 2.43882 15.3804 2.19802 17.0633 2.08008C18.7307 1.97937 20.3992 2.26082 21.9412 2.90297L15.7778 4.02291C15.5754 4.05972 15.4122 4.20965 15.3584 4.40821C15.3046 4.60677 15.3699 4.81856 15.5261 4.95246L20.5779 9.28184L19.9069 13.3083C19.7593 13.5064 19.7697 13.7806 19.9319 13.9669C20.0331 14.0815 20.1786 14.1471 20.3314 14.1472C20.3675 14.1446 20.4033 14.1383 20.4381 14.1285C20.4552 14.1285 20.4723 14.1285 20.4888 14.1243L24.7181 13.4192L26.5893 15.602C26.0079 16.2713 25.9021 17.2306 26.3236 18.0104C25.8255 18.415 25.5357 19.022 25.5342 19.6637C25.5359 19.814 25.5538 19.9636 25.5875 20.1101C25.438 20.364 25.3032 20.6263 25.1838 20.8956C24.462 22.5407 24.192 24.3485 24.4018 26.1327ZM30.8682 20.7303H27.6678C27.3848 20.7308 27.1134 20.6181 26.9141 20.4173C26.7975 20.301 26.7099 20.1588 26.6586 20.0023C26.6201 19.8936 26.6006 19.779 26.601 19.6637C26.6016 19.2191 26.8779 18.8215 27.2944 18.6659C27.4695 18.6019 27.5984 18.4513 27.6346 18.2685C27.6708 18.0857 27.609 17.8973 27.4715 17.7715C27.2544 17.5729 27.1319 17.2914 27.1344 16.9972C27.1354 16.7976 27.1927 16.6024 27.2997 16.434L29.0461 18.4712C29.1474 18.5894 29.2953 18.6573 29.4509 18.6573C29.498 18.6575 29.5448 18.6512 29.5902 18.6387C29.7886 18.5849 29.9384 18.4218 29.9753 18.2195L30.195 17.011C30.2412 17.0032 30.2879 16.9986 30.3348 16.9972C30.924 16.9972 31.4016 17.4747 31.4016 18.0638C31.4007 18.1516 31.3903 18.239 31.3706 18.3246C31.3376 18.5298 31.4167 18.737 31.5781 18.868L31.6219 18.9101C31.9264 19.2152 32.0174 19.6735 31.8526 20.0717C31.6877 20.4699 31.2993 20.7298 30.8682 20.7303Z" />
</svg>
