<svg width="34" height="32" viewBox="0 0 34 32" xmlns="http://www.w3.org/2000/svg">
<path d="M17.0626 0.000298724C11.4684 -0.039518 7.04605 3.90609 6.00869 8.79848C5.24554 12.3977 6.18596 16.0112 8.58883 18.7125C9.76333 20.0329 10.4369 21.7985 10.4369 23.5615V25.4367C10.4369 26.6849 11.2544 27.7452 12.3818 28.1119C12.7627 30.3169 14.6879 31.9999 17.0001 31.9999C19.3123 31.9999 21.2375 30.3169 21.6184 28.1119C22.7458 27.7452 23.5633 26.6849 23.5633 25.4367V23.5615C23.5633 21.8201 24.2569 20.0301 25.4661 18.6505C27.2622 16.6014 28.2513 13.9725 28.2513 11.2477C28.2513 5.09402 23.3051 0.0447409 17.0626 0.000298724ZM17.0001 30.1247C15.7777 30.1247 14.7349 29.3347 14.3479 28.2433H19.6522C19.2653 29.3347 18.2225 30.1247 17.0001 30.1247ZM21.6881 25.4367C21.6881 25.9537 21.2675 26.3743 20.7505 26.3743H13.2497C12.7327 26.3743 12.3121 25.9537 12.3121 25.4367V24.4991H21.6881V25.4367ZM16.0625 14.9981H15.1249C13.5739 14.9981 12.3121 13.7363 12.3121 12.1853V11.2477H13.2497C14.8007 11.2477 16.0625 12.5096 16.0625 14.0605V14.9981ZM24.0559 17.4145C22.7656 18.8865 21.9471 20.7439 21.74 22.6239H17.9377V16.8733H18.8753C21.4603 16.8733 23.5633 14.7703 23.5633 12.1853V10.3101C23.5633 9.79233 23.1435 9.37254 22.6257 9.37254H20.7505C19.2186 9.37254 17.8561 10.1112 17.0001 11.251C16.1441 10.1112 14.7816 9.37254 13.2497 9.37254H11.3745C10.8567 9.37254 10.4369 9.79233 10.4369 10.3101V12.1853C10.4369 14.7703 12.5399 16.8733 15.1249 16.8733H16.0625V22.6239H12.2624C12.0614 20.7313 11.258 18.8917 9.98992 17.4661C7.9874 15.215 7.20488 12.1975 7.84313 9.18746C8.69416 5.1736 12.3528 1.83468 17.0626 1.876C22.2796 1.92181 26.3761 6.13732 26.3761 11.2477C26.3761 13.5175 25.5521 15.7075 24.0559 17.4145ZM17.9377 14.9981V14.0605C17.9377 12.5096 19.1995 11.2477 20.7505 11.2477H21.6881V12.1853C21.6881 13.7363 20.4263 14.9981 18.8753 14.9981H17.9377Z" />
<path d="M3.81109 11.2478H1.93589C1.41809 11.2478 0.998291 11.6676 0.998291 12.1854C0.998291 12.7033 1.41809 13.123 1.93589 13.123H3.81109C4.32889 13.123 4.74869 12.7032 4.74869 12.1854C4.74869 11.6676 4.32889 11.2478 3.81109 11.2478Z" />
<path d="M4.19923 6.5598L2.87328 5.23385C2.50718 4.86769 1.91355 4.86769 1.54733 5.23385C1.18116 5.60001 1.18116 6.19364 1.54733 6.5598L2.87328 7.88575C3.23938 8.25185 3.83301 8.25198 4.19923 7.88575C4.5654 7.51959 4.5654 6.92597 4.19923 6.5598Z" />
<path d="M4.19943 16.4851C3.83327 16.1189 3.23964 16.1189 2.87348 16.4851L1.54753 17.8111C1.18142 18.1772 1.18142 18.7709 1.54753 19.137C1.91363 19.5032 2.50731 19.5032 2.87348 19.137L4.19943 17.8111C4.56553 17.4449 4.56553 16.8513 4.19943 16.4851Z" />
<path d="M32.064 11.2478H30.1888C29.671 11.2478 29.2512 11.6676 29.2512 12.1854C29.2512 12.7033 29.671 13.123 30.1888 13.123H32.064C32.5818 13.123 33.0016 12.7032 33.0016 12.1854C33.0016 11.6676 32.5818 11.2478 32.064 11.2478Z" />
<path d="M32.4524 5.23385C32.0863 4.86769 31.4926 4.86769 31.1265 5.23385L29.8005 6.5598C29.4343 6.92596 29.4343 7.51959 29.8005 7.88575C30.1667 8.25191 30.7603 8.25197 31.1265 7.88575L32.4524 6.5598C32.8186 6.19364 32.8186 5.60001 32.4524 5.23385Z" />
<path d="M32.4524 17.811L31.1265 16.4851C30.7603 16.1189 30.1667 16.1189 29.8005 16.4851C29.4343 16.8512 29.4343 17.4449 29.8005 17.811L31.1265 19.137C31.4926 19.5031 32.0862 19.5032 32.4524 19.137C32.8186 18.7708 32.8186 18.1772 32.4524 17.811Z" />
</svg>
