<svg width="32" height="32" viewBox="0 0 32 32"  xmlns="http://www.w3.org/2000/svg">
<path d="M10.3153 26.1012L16.3559 22.5129L32 3.91871L28.1176 0L9.69579 15.7905L6.14032 21.8885C4.77752 21.7435 3.36378 22.1957 2.3215 23.2477C0.906762 24.6757 1.21422 26.2278 1.43874 27.3611C1.67176 28.5372 1.75764 29.187 0.991394 29.9604L0 30.9611L1.29492 31.5036C4.00514 32.5471 7.11827 31.9052 8.9678 29.9562C10.0101 28.9041 10.4589 27.4769 10.3153 26.1012V26.1012ZM7.79489 22.7823L10.6171 17.9421L14.2242 21.583L9.42884 24.4316L7.79489 22.7823ZM29.4519 4.02344L15.6876 20.3833L11.8057 16.4651L28.0139 2.57199L29.4519 4.02344ZM3.18089 30.0509C3.66255 28.9334 3.44716 27.8464 3.27752 26.99C3.05113 25.8472 2.97231 25.2676 3.64749 24.5861C4.32692 23.9003 5.26912 23.6382 6.14994 23.7986L8.422 26.092C8.58089 26.981 8.32131 27.9321 7.64188 28.6178C6.12757 30.1463 4.33073 30.2182 3.18089 30.0509Z" />
</svg>
